<?xml version="1.0" encoding="UTF-8"?>
<!DOCTYPE svg PUBLIC "-//W3C//DTD SVG 1.1//EN" "http://www.w3.org/Graphics/SVG/1.1/DTD/svg11.dtd">
<!-- Creator: CorelDRAW 2020 (64-Bit) -->
<svg xmlns="http://www.w3.org/2000/svg" xml:space="preserve" width="1920px" height="2500px" version="1.1" style="shape-rendering:geometricPrecision; text-rendering:geometricPrecision; image-rendering:optimizeQuality; fill-rule:evenodd; clip-rule:evenodd"
viewBox="0 0 1920 2499.999"
 xmlns:xlink="http://www.w3.org/1999/xlink"
 xmlns:xodm="http://www.corel.com/coreldraw/odm/2003">
 <defs>
  <style type="text/css">
   <![CDATA[
    .fil0 {fill:url(#id5)}
    .fil1 {fill:url(#id6)}
   ]]>
  </style>
   <mask id="id0">
  <linearGradient id="id1" gradientUnits="userSpaceOnUse" x1="956.861" y1="1702.057" x2="956.86" y2="854.603">
   <stop offset="0" style="stop-opacity:0; stop-color:white"/>
   <stop offset="0.341176" style="stop-opacity:0.25098; stop-color:white"/>
   <stop offset="1" style="stop-opacity:0.501961; stop-color:white"/>
  </linearGradient>
    <rect style="fill:url(#id1)" y="-57.263" width="2173.271" height="1766.134"/>
   </mask>
   <mask id="id2">
  <linearGradient id="id3" gradientUnits="userSpaceOnUse" x1="945.476" y1="1613.179" x2="945.473" y2="854.603">
   <stop offset="0" style="stop-opacity:0; stop-color:white"/>
   <stop offset="0.439216" style="stop-opacity:0.501961; stop-color:white"/>
   <stop offset="1" style="stop-opacity:1; stop-color:white"/>
  </linearGradient>
    <rect style="fill:url(#id3)" y="-57.263" width="2147.406" height="1766.134"/>
   </mask>
   <clipPath id="id4">
    <rect x="428.925" y="361.107" width="244.793" height="244.514"/>
   </clipPath>
  <linearGradient id="id5" gradientUnits="objectBoundingBox" x1="49.9644%" y1="0%" x2="49.9645%" y2="100%">
   <stop offset="0" style="stop-opacity:1; stop-color:#6E9DFA"/>
   <stop offset="0.490196" style="stop-opacity:1; stop-color:#ED74ED"/>
   <stop offset="0.694118" style="stop-opacity:1; stop-color:#E8829B"/>
   <stop offset="1" style="stop-opacity:1; stop-color:#E39149"/>
  </linearGradient>
  <linearGradient id="id6" gradientUnits="userSpaceOnUse" x1="550.008" y1="363.844" x2="550.01" y2="603.677">
   <stop offset="0" style="stop-opacity:1; stop-color:#FF544F"/>
   <stop offset="1" style="stop-opacity:1; stop-color:#FAD126"/>
  </linearGradient>
 </defs>
 <g id="Layer_x0020_3">
  <metadata id="CorelCorpID_0Corel-Layer"/>
  <path class="fil0" style="mask:url(#id0)" d="M0 -57.263l0 1760c49.059,-1.627 1175.703,8.782 1377.57,5.484 432.638,-7.069 1418.063,-58.724 230.371,-58.283 -572.73,0.212 -573.334,-542.804 -578.327,-628.243 -4.993,-85.438 -8.045,-419.018 -452.442,-421.25 -54.591,40.625 -201.041,-54.783 -201.041,-119.791 0,-65.009 141.241,-158.334 201.041,-115.625 444.402,0 408.692,-422.292 408.692,-422.292l-985.864 0z"/>
  <path class="fil0" style="mask:url(#id2)" d="M0 -57.263l0 1760c49.059,-1.627 1149.838,8.782 1351.706,5.484 432.638,-7.069 1418.062,-58.723 230.371,-58.283 -572.73,0.212 -580.626,-566.762 -578.327,-628.243 2.298,-61.48 -8.045,-419.018 -452.442,-421.25 -65.009,0 -117.708,-52.699 -117.708,-117.708 0,-65.008 52.699,-117.708 117.708,-117.708 444.402,0 408.692,-422.292 408.692,-422.292l-960 0z"/>
  <circle class="fil1" cx="551.321" cy="483.364" r="118.207"/>
  <g style="clip-path:url(#id4)">
   <image id="Avatar.png" x="428.925" y="361.108" width="244.792" height="244.514" xlink:href="Pictures/Avatar.png"/>
  </g>
 </g>
</svg>
