<svg width="67" height="23" viewBox="0 0 67 23" fill="none" xmlns="http://www.w3.org/2000/svg">
    <path
        d="M12.375 15.8008C12.375 17.7383 11.9297 19.2969 11.0391 20.4766C10.1484 21.6484 8.95312 22.2344 7.45312 22.2344C5.85156 22.2344 4.61328 21.668 3.73828 20.5352L3.63281 22H1.64062V4H3.80859V10.7148C4.68359 9.62891 5.89062 9.08594 7.42969 9.08594C8.96875 9.08594 10.1758 9.66797 11.0508 10.832C11.9336 11.9961 12.375 13.5898 12.375 15.6133V15.8008ZM10.207 15.5547C10.207 14.0781 9.92188 12.9375 9.35156 12.1328C8.78125 11.3281 7.96094 10.9258 6.89062 10.9258C5.46094 10.9258 4.43359 11.5898 3.80859 12.918V18.4023C4.47266 19.7305 5.50781 20.3945 6.91406 20.3945C7.95312 20.3945 8.76172 19.9922 9.33984 19.1875C9.91797 18.3828 10.207 17.1719 10.207 15.5547ZM22.9453 22C22.8203 21.75 22.7188 21.3047 22.6406 20.6641C21.6328 21.7109 20.4297 22.2344 19.0312 22.2344C17.7812 22.2344 16.7539 21.8828 15.9492 21.1797C15.1523 20.4688 14.7539 19.5703 14.7539 18.4844C14.7539 17.1641 15.2539 16.1406 16.2539 15.4141C17.2617 14.6797 18.6758 14.3125 20.4961 14.3125H22.6055V13.3164C22.6055 12.5586 22.3789 11.957 21.9258 11.5117C21.4727 11.0586 20.8047 10.832 19.9219 10.832C19.1484 10.832 18.5 11.0273 17.9766 11.418C17.4531 11.8086 17.1914 12.2812 17.1914 12.8359H15.0117C15.0117 12.2031 15.2344 11.5938 15.6797 11.0078C16.1328 10.4141 16.7422 9.94531 17.5078 9.60156C18.2812 9.25781 19.1289 9.08594 20.0508 9.08594C21.5117 9.08594 22.6562 9.45312 23.4844 10.1875C24.3125 10.9141 24.7422 11.918 24.7734 13.1992V19.0352C24.7734 20.1992 24.9219 21.125 25.2188 21.8125V22H22.9453ZM19.3477 20.3477C20.0273 20.3477 20.6719 20.1719 21.2812 19.8203C21.8906 19.4688 22.332 19.0117 22.6055 18.4492V15.8477H20.9062C18.25 15.8477 16.9219 16.625 16.9219 18.1797C16.9219 18.8594 17.1484 19.3906 17.6016 19.7734C18.0547 20.1562 18.6367 20.3477 19.3477 20.3477ZM34.3008 11.2656C33.9727 11.2109 33.6172 11.1836 33.2344 11.1836C31.8125 11.1836 30.8477 11.7891 30.3398 13V22H28.1719V9.32031H30.2812L30.3164 10.7852C31.0273 9.65234 32.0352 9.08594 33.3398 9.08594C33.7617 9.08594 34.082 9.14062 34.3008 9.25V11.2656Z"
        fill="black" />
    <path
        d="M62.6895 22H51.5099V20.4414L57.4161 13.8789C58.2911 12.8867 58.8927 12.082 59.2208 11.4648C59.5567 10.8398 59.7247 10.1953 59.7247 9.53125C59.7247 8.64062 59.4552 7.91016 58.9161 7.33984C58.377 6.76953 57.6583 6.48438 56.7599 6.48438C55.6817 6.48438 54.8419 6.79297 54.2403 7.41016C53.6466 8.01953 53.3497 8.87109 53.3497 9.96484H51.1817C51.1817 8.39453 51.6856 7.125 52.6935 6.15625C53.7091 5.1875 55.0645 4.70312 56.7599 4.70312C58.3458 4.70312 59.5997 5.12109 60.5216 5.95703C61.4435 6.78516 61.9044 7.89062 61.9044 9.27344C61.9044 10.9531 60.8341 12.9531 58.6935 15.2734L54.1231 20.2305H62.6895V22Z"
        fill="black" />
    <rect x="36.9698" y="9" width="17.1433" height="1.37146" rx="0.68573" transform="rotate(45 36.9698 9)"
        fill="#FF3D3D" />
    <rect x="49.0919" y="9.96977" width="17.1433" height="1.37146" rx="0.68573" transform="rotate(135 49.0919 9.96977)"
        fill="#FF3D3D" />
</svg>