<svg width="17" height="93" viewBox="0 0 17 93" fill="none" xmlns="http://www.w3.org/2000/svg">
<path d="M0.399999 92.9591L0.399999 90.6191L13 90.6191L13 92.9591L0.399999 92.9591ZM3.28 81.9731C3.28 80.7611 3.634 79.7891 4.342 79.0571C5.05 78.3251 6.1 77.9591 7.492 77.9591L13 77.9591L13 80.2091L7.78 80.2091C6.94 80.2091 6.31 80.4071 5.89 80.8031C5.458 81.1991 5.242 81.7631 5.242 82.4951C5.242 83.3231 5.494 83.9771 5.998 84.4571C6.49 84.9371 7.204 85.1771 8.14 85.1771L13 85.1771L13 87.4271L3.388 87.4271L3.388 85.2851L4.63 85.2851C4.186 84.9131 3.85 84.4451 3.622 83.8811C3.394 83.3171 3.28 82.6811 3.28 81.9731ZM13.126 72.1348C13.126 72.9148 13.024 73.6768 12.82 74.4208C12.616 75.1648 12.358 75.7588 12.046 76.2028L10.336 75.3388C10.624 74.9068 10.858 74.3908 11.038 73.7908C11.206 73.1788 11.29 72.5788 11.29 71.9908C11.29 70.6468 10.936 69.9748 10.228 69.9748C9.892 69.9748 9.658 70.1488 9.526 70.4968C9.394 70.8328 9.268 71.3788 9.148 72.1348C9.028 72.9268 8.89 73.5748 8.734 74.0788C8.578 74.5708 8.308 75.0028 7.924 75.3748C7.528 75.7348 6.982 75.9148 6.286 75.9148C5.374 75.9148 4.648 75.5368 4.108 74.7808C3.556 74.0128 3.28 72.9808 3.28 71.6848C3.28 71.0248 3.358 70.3648 3.514 69.7048C3.658 69.0448 3.856 68.5048 4.108 68.0848L5.818 68.9488C5.338 69.7648 5.098 70.6828 5.098 71.7028C5.098 72.3628 5.2 72.8668 5.404 73.2148C5.596 73.5508 5.854 73.7188 6.178 73.7188C6.538 73.7188 6.796 73.5388 6.952 73.1788C7.096 72.8068 7.234 72.2368 7.366 71.4688C7.486 70.7008 7.624 70.0708 7.78 69.5788C7.936 69.0868 8.2 68.6668 8.572 68.3188C8.944 67.9588 9.472 67.7788 10.156 67.7788C11.056 67.7788 11.776 68.1688 12.316 68.9488C12.856 69.7288 13.126 70.7908 13.126 72.1348ZM12.478 60.0631C12.694 60.3271 12.856 60.6511 12.964 61.0351C13.072 61.4071 13.126 61.8031 13.126 62.2231C13.126 63.2791 12.85 64.0951 12.298 64.6711C11.746 65.2471 10.942 65.5351 9.886 65.5351L5.26 65.5351L5.26 67.1191L3.46 67.1191L3.46 65.5351L1.264 65.5351L1.264 63.2851L3.46 63.2851L3.46 60.7111L5.26 60.7111L5.26 63.2851L9.832 63.2851C10.3 63.2851 10.66 63.1711 10.912 62.9431C11.152 62.7151 11.272 62.3851 11.272 61.9531C11.272 61.4491 11.14 61.0291 10.876 60.6931L12.478 60.0631ZM3.28 54.5402C3.28 53.1242 3.622 52.0442 4.306 51.3002C4.978 50.5442 5.998 50.1662 7.366 50.1662L13 50.1662L13 52.2902L11.83 52.2902C12.25 52.5662 12.574 52.9622 12.802 53.4782C13.018 53.9822 13.126 54.5942 13.126 55.3142C13.126 56.0342 13.006 56.6642 12.766 57.2042C12.514 57.7442 12.172 58.1642 11.74 58.4642C11.296 58.7522 10.798 58.8962 10.246 58.8962C9.382 58.8962 8.692 58.5782 8.176 57.9422C7.648 57.2942 7.384 56.2802 7.384 54.9002L7.384 52.4162L7.24 52.4162C6.568 52.4162 6.052 52.6202 5.692 53.0282C5.332 53.4242 5.152 54.0182 5.152 54.8102C5.152 55.3502 5.236 55.8842 5.404 56.4122C5.572 56.9282 5.806 57.3662 6.106 57.7262L4.468 58.6082C4.084 58.1042 3.79 57.4982 3.586 56.7902C3.382 56.0822 3.28 55.3322 3.28 54.5402ZM11.488 54.8462C11.488 54.2822 11.362 53.7842 11.11 53.3522C10.846 52.9082 10.474 52.5962 9.994 52.4162L8.878 52.4162L8.878 54.7382C8.878 56.0342 9.304 56.6822 10.156 56.6822C10.564 56.6822 10.888 56.5202 11.128 56.1962C11.368 55.8722 11.488 55.4222 11.488 54.8462ZM3.388 37.6507L11.542 37.6507C14.926 37.6507 16.618 39.3787 16.618 42.8347C16.618 43.7587 16.498 44.6347 16.258 45.4627C16.03 46.2907 15.694 46.9747 15.25 47.5147L13.558 46.5067C13.906 46.0867 14.182 45.5587 14.386 44.9227C14.602 44.2747 14.71 43.6207 14.71 42.9607C14.71 41.9047 14.47 41.1307 13.99 40.6387C13.51 40.1467 12.778 39.9007 11.794 39.9007L11.29 39.9007C11.71 40.2847 12.028 40.7527 12.244 41.3047C12.46 41.8567 12.568 42.4627 12.568 43.1227C12.568 44.0347 12.376 44.8627 11.992 45.6067C11.596 46.3387 11.044 46.9207 10.336 47.3527C9.628 47.7727 8.818 47.9827 7.906 47.9827C6.994 47.9827 6.19 47.7727 5.494 47.3527C4.786 46.9207 4.24 46.3387 3.856 45.6067C3.472 44.8627 3.28 44.0347 3.28 43.1227C3.28 42.4267 3.394 41.7967 3.622 41.2327C3.85 40.6567 4.198 40.1767 4.666 39.7927L3.388 39.7927L3.388 37.6507ZM10.66 42.7807C10.66 41.9287 10.408 41.2327 9.904 40.6927C9.388 40.1407 8.722 39.8647 7.906 39.8647C7.102 39.8647 6.448 40.1407 5.944 40.6927C5.44 41.2327 5.188 41.9287 5.188 42.7807C5.188 43.6447 5.44 44.3527 5.944 44.9047C6.448 45.4447 7.102 45.7147 7.906 45.7147C8.722 45.7147 9.388 45.4447 9.904 44.9047C10.408 44.3527 10.66 43.6447 10.66 42.7807ZM4.792 32.5507C3.784 31.9027 3.28 30.7627 3.28 29.1307L5.422 29.1307C5.386 29.3227 5.368 29.4967 5.368 29.6527C5.368 30.5287 5.626 31.2127 6.142 31.7047C6.646 32.1967 7.378 32.4427 8.338 32.4427L13 32.4427L13 34.6927L3.388 34.6927L3.388 32.5507L4.792 32.5507ZM3.28 23.6027C3.28 22.1867 3.622 21.1067 4.306 20.3627C4.978 19.6067 5.998 19.2287 7.366 19.2287L13 19.2287L13 21.3527L11.83 21.3527C12.25 21.6287 12.574 22.0247 12.802 22.5407C13.018 23.0447 13.126 23.6567 13.126 24.3767C13.126 25.0967 13.006 25.7267 12.766 26.2667C12.514 26.8067 12.172 27.2267 11.74 27.5267C11.296 27.8147 10.798 27.9587 10.246 27.9587C9.382 27.9587 8.692 27.6407 8.176 27.0047C7.648 26.3567 7.384 25.3427 7.384 23.9627L7.384 21.4787L7.24 21.4787C6.568 21.4787 6.052 21.6827 5.692 22.0907C5.332 22.4867 5.152 23.0807 5.152 23.8727C5.152 24.4127 5.236 24.9467 5.404 25.4747C5.572 25.9907 5.806 26.4287 6.106 26.7887L4.468 27.6707C4.084 27.1667 3.79 26.5607 3.586 25.8527C3.382 25.1447 3.28 24.3947 3.28 23.6027ZM11.488 23.9087C11.488 23.3447 11.362 22.8467 11.11 22.4147C10.846 21.9707 10.474 21.6587 9.994 21.4787L8.878 21.4787L8.878 23.8007C8.878 25.0967 9.304 25.7447 10.156 25.7447C10.564 25.7447 10.888 25.5827 11.128 25.2587C11.368 24.9347 11.488 24.4847 11.488 23.9087ZM3.28 4.20914C3.28 2.99714 3.634 2.03714 4.342 1.32914C5.038 0.621138 6.088 0.267138 7.492 0.267138L13 0.267137L13 2.51714L7.78 2.51714C6.94 2.51714 6.31 2.70314 5.89 3.07514C5.458 3.44714 5.242 3.98114 5.242 4.67714C5.242 5.43314 5.494 6.03914 5.998 6.49514C6.49 6.95114 7.198 7.17914 8.122 7.17914L13 7.17914L13 9.42914L7.78 9.42914C6.94 9.42914 6.31 9.61514 5.89 9.98714C5.458 10.3591 5.242 10.8931 5.242 11.5891C5.242 12.3571 5.488 12.9691 5.98 13.4251C6.472 13.8691 7.186 14.0911 8.122 14.0911L13 14.0911L13 16.3411L3.388 16.3411L3.388 14.1991L4.612 14.1991C4.18 13.8391 3.85 13.3891 3.622 12.8491C3.394 12.3091 3.28 11.7091 3.28 11.0491C3.28 10.3291 3.418 9.69314 3.694 9.14114C3.958 8.57714 4.354 8.13314 4.882 7.80914C4.378 7.41314 3.988 6.90314 3.712 6.27914C3.424 5.65514 3.28 4.96514 3.28 4.20914Z" fill="black"/>
</svg>
