<svg width="137" height="43" viewBox="0 0 137 43" fill="none" xmlns="http://www.w3.org/2000/svg">
<path d="M0.512 20L0.512 0.559999L9.512 0.559999L9.512 3.752L4.808 3.752L4.808 20H0.512ZM11.3814 23.816V20.984C12.0694 21 12.6694 20.968 13.1814 20.888C13.6934 20.808 14.1094 20.656 14.4294 20.432C14.7494 20.208 14.9574 19.904 15.0534 19.52C15.1654 19.12 15.1494 18.624 15.0054 18.032L10.6374 0.559999L14.6214 0.559999L16.3014 8.552L17.0934 13.76L17.6694 8.528L19.0854 0.559999L23.1174 0.559999L19.0854 18.68C18.8934 19.56 18.6694 20.304 18.4134 20.912C18.1574 21.52 17.8374 22.016 17.4534 22.4C17.0854 22.8 16.6294 23.104 16.0854 23.312C15.5414 23.52 14.8774 23.656 14.0934 23.72C13.3254 23.8 12.4214 23.832 11.3814 23.816ZM29.7824 20.36C28.4224 20.36 27.3504 20.104 26.5664 19.592C25.7984 19.08 25.2464 18.368 24.9104 17.456C24.5904 16.528 24.4304 15.464 24.4304 14.264V13.568L28.4624 13.568C28.4624 13.6 28.4624 13.696 28.4624 13.856C28.4624 14.016 28.4624 14.168 28.4624 14.312C28.4624 15.272 28.5584 15.96 28.7504 16.376C28.9424 16.776 29.3104 16.976 29.8544 16.976C30.2224 16.976 30.4944 16.88 30.6704 16.688C30.8624 16.496 30.9904 16.216 31.0544 15.848C31.1344 15.464 31.1744 14.984 31.1744 14.408C31.1744 13.432 31.0304 12.696 30.7424 12.2C30.4544 11.688 29.8544 11.424 28.9424 11.408C28.9264 11.392 28.8544 11.384 28.7264 11.384C28.6144 11.384 28.4784 11.384 28.3184 11.384C28.1584 11.384 28.0064 11.384 27.8624 11.384L27.8624 8.768C27.9744 8.768 28.0864 8.768 28.1984 8.768C28.3104 8.768 28.4224 8.768 28.5344 8.768C28.6464 8.768 28.7504 8.768 28.8464 8.768C29.7904 8.752 30.4144 8.496 30.7184 8C31.0224 7.504 31.1744 6.768 31.1744 5.792C31.1744 5.04 31.0544 4.464 30.8144 4.064C30.5904 3.664 30.2064 3.464 29.6624 3.464C29.1344 3.464 28.7664 3.68 28.5584 4.112C28.3664 4.528 28.2624 5.088 28.2464 5.792C28.2464 5.824 28.2464 5.96 28.2464 6.2C28.2464 6.424 28.2464 6.648 28.2464 6.872L24.2144 6.872V5.696C24.2144 4.528 24.4384 3.544 24.8864 2.744C25.3504 1.928 25.9904 1.312 26.8064 0.895998C27.6224 0.479999 28.5824 0.271999 29.6864 0.271999C30.8224 0.271999 31.7904 0.471999 32.5904 0.871999C33.4064 1.272 34.0304 1.864 34.4624 2.648C34.8944 3.416 35.1104 4.376 35.1104 5.528C35.1104 6.664 34.8784 7.624 34.4144 8.408C33.9504 9.176 33.3904 9.648 32.7344 9.824C33.1824 10 33.5824 10.264 33.9344 10.616C34.3024 10.952 34.5904 11.416 34.7984 12.008C35.0064 12.6 35.1104 13.36 35.1104 14.288C35.1104 15.472 34.9344 16.528 34.5824 17.456C34.2464 18.368 33.6864 19.08 32.9024 19.592C32.1184 20.104 31.0784 20.36 29.7824 20.36ZM37.4713 20V0.559999L46.2073 0.559999V3.488L41.7673 3.488V8.312H45.1513V11.288H41.7673V17.096H46.2553V20H37.4713ZM46.9336 20V16.976C47.4776 16.976 47.9176 16.944 48.2536 16.88C48.5896 16.8 48.8536 16.624 49.0456 16.352C49.2376 16.08 49.3896 15.664 49.5016 15.104C49.6136 14.544 49.7016 13.792 49.7656 12.848C49.8456 11.904 49.9416 10.704 50.0536 9.248L50.6776 0.559999L60.9736 0.559999V20H56.7016V3.848H54.5656L54.1816 10.064C54.0696 11.664 53.9576 13.048 53.8456 14.216C53.7336 15.368 53.5496 16.336 53.2936 17.12C53.0536 17.904 52.6856 18.52 52.1896 18.968C51.7096 19.4 51.0456 19.696 50.1976 19.856C49.3496 20.016 48.2616 20.064 46.9336 20ZM64.0276 20V0.559999L68.3236 0.559999V8.768H69.2836C70.4996 8.768 71.5316 8.968 72.3796 9.368C73.2276 9.768 73.8756 10.384 74.3236 11.216C74.7716 12.032 74.9956 13.088 74.9956 14.384C74.9956 15.568 74.8356 16.528 74.5156 17.264C74.2116 18 73.7796 18.568 73.2196 18.968C72.6596 19.368 72.0036 19.64 71.2516 19.784C70.5156 19.928 69.7236 20 68.8756 20H64.0276ZM68.3236 17.192H68.8996C69.4436 17.192 69.8676 17.088 70.1716 16.88C70.4916 16.672 70.7156 16.352 70.8436 15.92C70.9876 15.488 71.0516 14.944 71.0356 14.288C71.0196 13.568 70.8676 12.968 70.5796 12.488C70.3076 11.992 69.7316 11.744 68.8516 11.744H68.3236V17.192ZM0.44 42L0.44 22.56H9.176V25.488H4.736L4.736 30.312H8.12V33.288H4.736L4.736 39.096H9.224V42H0.44ZM11.1744 42L11.1744 22.56H16.2384C17.0704 22.56 17.8544 22.624 18.5904 22.752C19.3424 22.88 20.0064 23.128 20.5824 23.496C21.1584 23.848 21.6064 24.36 21.9264 25.032C22.2624 25.688 22.4304 26.56 22.4304 27.648C22.4304 28.432 22.3104 29.096 22.0704 29.64C21.8464 30.168 21.5184 30.592 21.0864 30.912C20.6704 31.232 20.1664 31.448 19.5744 31.56C20.3264 31.656 20.9584 31.904 21.4704 32.304C21.9824 32.688 22.3664 33.208 22.6224 33.864C22.8944 34.52 23.0304 35.312 23.0304 36.24C23.0304 37.248 22.8944 38.12 22.6224 38.856C22.3664 39.576 21.9904 40.168 21.4944 40.632C20.9984 41.096 20.3824 41.44 19.6464 41.664C18.9264 41.888 18.0944 42 17.1504 42H11.1744ZM15.4704 39H16.3824C17.3264 39 17.9744 38.76 18.3264 38.28C18.6944 37.8 18.8784 37.096 18.8784 36.168C18.8784 35.432 18.7984 34.848 18.6384 34.416C18.4784 33.984 18.2144 33.672 17.8464 33.48C17.4784 33.272 16.9824 33.168 16.3584 33.168H15.4704V39ZM15.4704 30.336H16.3104C16.9664 30.336 17.4624 30.24 17.7984 30.048C18.1344 29.84 18.3584 29.544 18.4704 29.16C18.5984 28.776 18.6624 28.312 18.6624 27.768C18.6624 27.256 18.5664 26.832 18.3744 26.496C18.1984 26.144 17.9264 25.88 17.5584 25.704C17.2064 25.528 16.7584 25.44 16.2144 25.44H15.4704V30.336ZM30.8518 42.288C29.3798 42.288 28.2118 42.024 27.3478 41.496C26.4998 40.952 25.8998 40.2 25.5478 39.24C25.1958 38.264 25.0198 37.12 25.0198 35.808L25.0198 28.8C25.0198 27.456 25.1958 26.304 25.5478 25.344C25.8998 24.368 26.4998 23.616 27.3478 23.088C28.2118 22.56 29.3798 22.296 30.8518 22.296C32.2918 22.296 33.4118 22.536 34.2118 23.016C35.0278 23.48 35.6038 24.136 35.9398 24.984C36.2758 25.832 36.4438 26.808 36.4438 27.912V29.592H32.2438V27.648C32.2438 27.264 32.2198 26.896 32.1718 26.544C32.1398 26.192 32.0278 25.904 31.8358 25.68C31.6438 25.44 31.3158 25.32 30.8518 25.32C30.4038 25.32 30.0677 25.44 29.8437 25.68C29.6358 25.92 29.4998 26.224 29.4358 26.592C29.3878 26.944 29.3638 27.32 29.3638 27.72L29.3638 36.864C29.3638 37.296 29.3958 37.696 29.4598 38.064C29.5398 38.416 29.6838 38.704 29.8918 38.928C30.1158 39.136 30.4358 39.24 30.8518 39.24C31.2998 39.24 31.6198 39.128 31.8118 38.904C32.0038 38.664 32.1238 38.36 32.1718 37.992C32.2198 37.624 32.2438 37.248 32.2438 36.864V34.824H36.4438V36.504C36.4438 37.608 36.2758 38.6 35.9398 39.48C35.6198 40.344 35.0518 41.032 34.2358 41.544C33.4358 42.04 32.3078 42.288 30.8518 42.288ZM40.5592 42V25.752H37.6312V22.56H47.7832V25.752H44.8792V42H40.5592ZM49.5667 42V22.56H52.9507V33.696L57.9187 22.56H60.7027V42H57.2467V30.672L52.1827 42H49.5667ZM63.7229 42V22.56H72.7229V25.752H68.0189V42L63.7229 42ZM74.8323 42V22.56L79.1283 22.56V30.432H82.1283V22.56H86.4483V42H82.1283V33.504H79.1283V42H74.8323ZM89.4088 42V22.56H98.1448V25.488H93.7048V30.312H97.0888V33.288H93.7048V39.096H98.1928V42H89.4088ZM100.143 42V22.56H108.879V25.488H104.439V30.312H107.823V33.288H104.439V39.096H108.927V42H100.143ZM110.878 42V22.56H115.942C116.774 22.56 117.558 22.624 118.294 22.752C119.046 22.88 119.71 23.128 120.286 23.496C120.862 23.848 121.31 24.36 121.63 25.032C121.966 25.688 122.134 26.56 122.134 27.648C122.134 28.432 122.014 29.096 121.773 29.64C121.549 30.168 121.222 30.592 120.79 30.912C120.374 31.232 119.87 31.448 119.278 31.56C120.03 31.656 120.662 31.904 121.174 32.304C121.686 32.688 122.07 33.208 122.326 33.864C122.598 34.52 122.734 35.312 122.734 36.24C122.734 37.248 122.598 38.12 122.326 38.856C122.07 39.576 121.694 40.168 121.198 40.632C120.702 41.096 120.086 41.44 119.35 41.664C118.63 41.888 117.798 42 116.854 42H110.878ZM115.174 39H116.086C117.03 39 117.678 38.76 118.03 38.28C118.398 37.8 118.582 37.096 118.582 36.168C118.582 35.432 118.502 34.848 118.342 34.416C118.182 33.984 117.918 33.672 117.55 33.48C117.182 33.272 116.686 33.168 116.062 33.168H115.174V39ZM115.174 30.336H116.014C116.67 30.336 117.166 30.24 117.502 30.048C117.838 29.84 118.062 29.544 118.174 29.16C118.302 28.776 118.366 28.312 118.366 27.768C118.366 27.256 118.27 26.832 118.078 26.496C117.902 26.144 117.63 25.88 117.262 25.704C116.91 25.528 116.462 25.44 115.918 25.44H115.174V30.336ZM124.051 42L127.723 22.56H132.619L136.243 42H132.283L131.635 37.896H128.779L128.107 42H124.051ZM129.163 35.328H131.227L130.195 27.744L129.163 35.328Z" fill="black"/>
</svg>
