<svg width="46" height="38" viewBox="0 0 46 38" fill="none" xmlns="http://www.w3.org/2000/svg">
<path d="M0 38C0 35.3239 0 32.7371 0 30.2394C0.0878699 27.6526 0.17574 25.2887 0.26361 23.1479C0.527221 15.4765 1.71347 9.72301 3.82235 5.88732C6.0191 1.96244 10.149 0 16.212 0L17.7937 6.82394C14.3668 6.91314 12.17 8.07277 11.2034 10.3028C10.2369 12.5329 9.75358 15.3873 9.75358 18.8662L18.9799 18.8662L18.9799 38H0ZM27.0201 38C27.0201 35.3239 27.0201 32.7371 27.0201 30.2394C27.1079 27.6526 27.1958 25.2887 27.2837 23.1479C27.5473 15.4765 28.7335 9.72301 30.8424 5.88732C33.0392 1.96244 37.1691 0 43.2321 0L44.8138 6.82394C41.3868 6.91314 39.1901 8.07277 38.2235 10.3028C37.2569 12.5329 36.7736 15.3873 36.7736 18.8662H46L46 38H27.0201Z" fill="#E4E5E5"/>
</svg>
