<svg width="22" height="13" viewBox="0 0 22 13" fill="none" xmlns="http://www.w3.org/2000/svg">
<path d="M21.0759 11.2888C21.0759 11.1252 20.6021 10.4708 19.0227 8.67113C17.2854 6.87146 17.4433 7.19867 19.6544 4.25376C20.9179 2.45409 21.5497 1.30885 21.3918 0.818031C21.2338 0.327212 20.2862 0.490819 20.2862 0.490819L17.1274 0.490819C17.1274 0.490819 16.8116 0.490819 16.6536 0.490819C16.4957 0.654425 16.3378 0.818031 16.3378 0.818031C16.3378 0.818031 15.706 2.45409 15.0743 3.59934C13.6528 6.21704 13.0211 6.21704 12.7052 6.05343C12.2314 5.72622 12.3893 4.58097 12.3893 3.92655C12.3893 1.47246 12.7052 0.490819 11.7576 0.163606C11.2838 0 11.1258 0 10.1782 0C9.07263 0 8.12501 0 7.49326 0.327212C7.17738 0.490819 6.86151 0.818031 7.01944 0.981637C7.17738 0.981637 7.65119 1.14524 7.96707 1.47246C8.28294 1.96327 8.28294 2.94491 8.28294 2.94491C8.28294 2.94491 8.44088 5.88982 7.80913 6.21704C7.49326 6.38064 6.86151 5.88982 5.59801 3.59934C4.96626 2.45409 4.49244 1.14524 4.49244 1.14524C4.49244 1.14524 4.33451 0.818031 4.17657 0.818031C4.01863 0.654425 3.70276 0.490819 3.70276 0.490819L0.701944 0.490819C0.701944 0.490819 0.228132 0.490819 0.0701944 0.654425C-0.0877431 0.818031 0.0701944 1.14524 0.0701944 1.14524C0.0701944 1.14524 2.43926 6.87146 5.12419 9.81637C7.65119 12.4341 10.4941 12.2705 10.4941 12.2705H11.7576C11.7576 12.2705 12.0734 12.2705 12.3893 11.9433C12.5473 11.7796 12.5473 11.2888 12.5473 11.2888C12.5473 11.2888 12.5473 9.48916 13.3369 9.32555C14.1266 8.99834 15.0743 10.9616 16.1798 11.7796C16.9695 12.4341 17.6013 12.2705 17.6013 12.2705L20.4441 12.2705C20.2862 12.5977 21.7076 12.4341 21.0759 11.2888Z" fill="black"/>
</svg>
