<svg width="24" height="24" viewBox="0 0 24 24" fill="none" xmlns="http://www.w3.org/2000/svg">
<path d="M7.02085 18.3214L7.72167 18.7309C8.90353 19.4201 10.2477 19.782 11.6159 19.7792C13.1475 19.7792 14.6447 19.325 15.9182 18.4741C17.1917 17.6232 18.1842 16.4138 18.7704 14.9987C19.3565 13.5837 19.5098 12.0267 19.211 10.5245C18.9122 9.02232 18.1747 7.64249 17.0917 6.55948C16.0087 5.47647 14.6288 4.73893 13.1267 4.44013C11.6245 4.14133 10.0675 4.29468 8.65243 4.8808C7.23741 5.46692 6.02797 6.45948 5.17706 7.73297C4.32614 9.00645 3.87197 10.5037 3.87197 12.0353C3.87197 13.4253 4.2369 14.7582 4.92127 15.9305L5.32977 16.6313L4.69767 18.9554L7.02085 18.3214ZM1.93986 21.7152L3.24858 16.9062C2.38624 15.4279 1.93318 13.7467 1.93599 12.0353C1.93599 6.68905 6.26969 2.35535 11.6159 2.35535C16.9621 2.35535 21.2958 6.68905 21.2958 12.0353C21.2958 17.3815 16.9621 21.7152 11.6159 21.7152C9.90525 21.7179 8.2247 21.2652 6.74691 20.4036L1.93986 21.7152ZM8.12242 7.49345C8.25213 7.48377 8.38281 7.48377 8.51252 7.48958C8.5648 7.49345 8.61707 7.49926 8.66934 7.50506C8.82325 7.52249 8.99265 7.61638 9.04976 7.74609C9.33822 8.40046 9.61894 9.05966 9.88998 9.7208C9.94999 9.86793 9.91418 10.0567 9.79995 10.2406C9.7214 10.365 9.63642 10.4852 9.54537 10.6007C9.43599 10.7411 9.20077 10.9985 9.20077 10.9985C9.20077 10.9985 9.10494 11.1128 9.14172 11.2551C9.15527 11.3093 9.1998 11.3877 9.24045 11.4535L9.29757 11.5455C9.54537 11.9588 9.87836 12.3779 10.2849 12.7729C10.4011 12.8852 10.5143 13.0004 10.6363 13.1078C11.0893 13.5076 11.6024 13.8338 12.156 14.0758L12.1609 14.0777C12.2432 14.1135 12.2848 14.1329 12.4048 14.1842C12.4648 14.2094 12.5268 14.2316 12.5897 14.2481C12.6547 14.2647 12.7232 14.2615 12.7864 14.2391C12.8497 14.2167 12.9049 14.1761 12.945 14.1223C13.6458 13.2733 13.7097 13.2182 13.7155 13.2182V13.2201C13.7642 13.1747 13.822 13.1402 13.8851 13.119C13.9482 13.0978 14.0152 13.0904 14.0814 13.0972C14.1395 13.101 14.1985 13.1117 14.2527 13.1359C14.7667 13.3711 15.6079 13.738 15.6079 13.738L16.1713 13.9906C16.2661 14.0361 16.3523 14.1436 16.3552 14.2471C16.3591 14.312 16.3649 14.4165 16.3426 14.6082C16.3116 14.8589 16.2361 15.1599 16.1606 15.3177C16.1089 15.4254 16.0403 15.5241 15.9574 15.6101C15.8597 15.7126 15.7527 15.8059 15.6379 15.8888C15.5982 15.9187 15.5578 15.9478 15.5169 15.976C15.3965 16.0523 15.2728 16.1234 15.1462 16.1889C14.8969 16.3213 14.6217 16.3973 14.3398 16.4116C14.1608 16.4212 13.9817 16.4348 13.8016 16.4251C13.7939 16.4251 13.2518 16.3409 13.2518 16.3409C11.8756 15.9789 10.6028 15.3008 9.53472 14.3604C9.31596 14.1678 9.11365 13.9606 8.9065 13.7544C8.04498 12.8977 7.39449 11.9733 6.99955 11.1002C6.79741 10.6716 6.68821 10.2052 6.67915 9.73145C6.67516 9.14373 6.86727 8.57147 7.2251 8.10522C7.29576 8.01423 7.36255 7.91936 7.47774 7.80998C7.60068 7.69382 7.67812 7.63187 7.76233 7.58928C7.8743 7.53317 7.99645 7.50024 8.12146 7.49248L8.12242 7.49345Z" fill="black"/>
</svg>
