<svg width="383" height="383" viewBox="0 0 383 383" fill="none" xmlns="http://www.w3.org/2000/svg">
<g opacity="0.5">
<path d="M379.796 202.278L380.113 192.002L366.18 191.572L366.092 194.411L379.706 194.831L379.476 202.268L379.796 202.278Z" fill="black"/>
<path d="M365.866 202.65L365.829 203.008L371.294 205.55L370.702 211.219L364.802 212.835L364.492 215.799L378.918 211.876L379.232 208.873L365.866 202.65ZM378.773 209.026L371.052 211.135L371.62 205.705L378.773 209.026Z" fill="black"/>
<path d="M362.468 225.143C362.181 226.615 361.705 229.477 363.563 232.284L363.825 232.09C362.046 229.401 362.562 226.649 362.841 225.216C363.41 222.291 366.134 220.967 370.668 221.85C374.693 222.633 377.072 224.543 376.399 227.998C376.032 229.883 374.654 232.773 372.202 232.703L372.177 233.044C373.781 233.071 376.041 231.616 376.759 227.926C377.658 223.312 375.223 219.7 371.12 218.902C367.017 218.103 363.366 220.53 362.468 225.143Z" fill="black"/>
<path d="M372.899 241.56L359.803 237.818L359.019 240.547L372.109 244.309L370.524 249.826L370.831 249.914L374.791 236.132L374.484 236.043L372.899 241.56Z" fill="black"/>
<path d="M370.091 252.08L357.058 247.134L356.051 249.789L360.557 251.499L359.365 254.641C358.201 257.707 357.696 261.067 361.548 262.529C364.802 263.763 366.731 261.779 367.782 259.011C368.889 256.094 367.02 254.423 364.745 253.089L369.084 254.735L370.091 252.08ZM366.054 254.377C367.694 255.577 367.959 257.303 367.66 258.43C366.883 261.323 364.952 260.718 362.577 259.817C358.632 258.32 359.127 256.112 359.808 254.317L360.837 251.606C360.837 251.606 363.472 252.499 366.054 254.377Z" fill="black"/>
<path d="M358.308 263.372C353.765 261.144 349.941 263.991 348.127 267.69C346.304 271.407 346.403 276.156 350.946 278.384C355.471 280.603 359.376 277.818 361.199 274.101C363.022 270.384 362.833 265.592 358.308 263.372ZM360.912 273.96C359.591 276.654 356.945 278.052 352.276 275.762C347.59 273.463 347.075 270.516 348.396 267.822C349.717 265.129 352.363 263.731 357.05 266.029C361.718 268.319 362.233 271.267 360.912 273.96Z" fill="black"/>
<path d="M345.508 278.21C342.237 279.005 340.65 281.409 339.859 282.683C337.369 286.693 338.395 290.956 341.929 293.15C345.497 295.366 349.739 294.374 352.228 290.364C354.212 287.169 353.545 284.566 352.34 283.512L352.126 283.779C353.971 285.396 353.016 288.451 351.94 290.184C350.209 292.971 347.337 292.859 343.903 290.844L346.614 286.477L346.342 286.309L343.631 290.675C339.825 288.312 338.599 285.433 340.182 282.884C340.924 281.65 342.435 279.292 345.569 278.53L345.508 278.21Z" fill="black"/>
<path d="M346.33 299.012L335.178 290.648L333.474 292.92L339.138 297.168L334.53 303.312L328.866 299.064L327.162 301.336L338.314 309.7L340.018 307.428L334.786 303.504L339.394 297.36L344.626 301.284L346.33 299.012Z" fill="black"/>
<path d="M332.942 315.408L322.754 306.368L320.866 308.489L331.04 317.544L327.224 321.832L327.463 322.045L336.997 311.332L336.758 311.12L332.942 315.408Z" fill="black"/>
<path d="M315.999 313.759L308.068 321.352L308.303 321.598L314.183 315.969L318.858 320.852L314.263 325.25L314.485 325.481L319.079 321.083L323.366 325.562L317.486 331.191L317.708 331.422L325.639 323.829L315.999 313.759Z" fill="black"/>
<path d="M315.721 333.215L306.878 322.44L304.683 324.241L307.74 327.967L305.143 330.099C302.608 332.18 300.498 334.843 303.112 338.027C305.32 340.717 307.981 339.956 310.269 338.078C312.681 336.099 311.892 333.719 310.583 331.43L313.526 335.017L315.721 333.215ZM311.076 333.199C311.902 335.056 311.273 336.685 310.452 337.514C308.339 339.636 306.965 338.151 305.354 336.188C302.676 332.925 304.205 331.257 305.689 330.039L307.931 328.199C307.931 328.199 309.772 330.285 311.076 333.199Z" fill="black"/>
<path d="M299.719 337.265C296.894 333.067 292.159 333.625 288.741 335.925C285.306 338.237 283.022 342.401 285.847 346.599C288.661 350.781 293.435 350.316 296.87 348.005C300.304 345.694 302.533 341.446 299.719 337.265ZM296.691 347.74C294.202 349.414 291.212 349.305 288.309 344.991C285.394 340.66 286.42 337.849 288.909 336.174C291.397 334.499 294.388 334.609 297.302 338.939C300.205 343.253 299.18 346.065 296.691 347.74Z" fill="black"/>
<path d="M280.504 341.664L280.188 341.837L282.575 355.873L271.52 346.577L268.905 348.007L280.331 357.647L282.981 356.198L280.504 341.664Z" fill="black"/>
<path d="M270.345 355.078C268.357 350.425 263.601 350.087 259.813 351.706C256.006 353.333 252.982 356.996 254.97 361.649C256.951 366.283 261.728 366.722 265.534 365.095C269.341 363.468 272.326 359.713 270.345 355.078ZM265.409 364.8C262.65 365.979 259.733 365.312 257.69 360.53C255.638 355.73 257.172 353.161 259.93 351.982C262.689 350.803 265.606 351.47 267.657 356.27C269.701 361.052 268.167 363.621 265.409 364.8Z" fill="black"/>
<path d="M244.76 372.355L254.526 369.145L250.172 355.902L247.474 356.789L251.728 369.728L244.66 372.051L244.76 372.355Z" fill="black"/>
<path d="M222.703 366.624C221.798 366.786 221.216 367.622 221.374 368.508C221.536 369.413 222.372 369.995 223.277 369.833C224.163 369.675 224.745 368.839 224.583 367.934C224.425 367.048 223.589 366.466 222.703 366.624Z" fill="black"/>
<path d="M189.24 366.168C188.121 366.199 187.197 365.323 187.167 364.204C187.137 363.104 188.012 362.18 189.132 362.15C190.231 362.12 191.175 362.995 191.205 364.095L191.525 364.086C191.49 362.806 190.422 361.775 189.123 361.81C187.823 361.845 186.812 362.933 186.847 364.212C186.881 365.472 187.89 366.545 189.13 366.511L189.609 366.499L195.255 379.951L198.274 379.869L201.202 370.507C202.4 366.713 202.725 366.144 203.564 366.121L203.555 365.782L189.24 366.168ZM200.879 370.395L198.063 379.455L192.588 366.418L202.645 366.146C202.118 366.661 201.67 367.853 200.879 370.395Z" fill="black"/>
<path d="M185.525 366.095L182.692 365.898C178.761 365.625 175.893 367.951 174.776 371.623L175.21 365.378L172.377 365.181L171.41 379.087L174.243 379.284L174.602 374.116C175.54 366.403 180.933 366.116 182.668 366.237L181.725 379.804L184.558 380.001L185.525 366.095Z" fill="black"/>
<path d="M169.975 364.873L159.119 363.23L159.068 363.566L167.117 364.784L166.105 371.468L159.817 370.516L159.769 370.833L166.057 371.784L165.13 377.914L157.081 376.696L157.033 377.013L167.89 378.656L169.975 364.873Z" fill="black"/>
<path d="M149.833 375.145L152.874 361.869L150.107 361.231L147.046 374.503L141.453 373.213L141.381 373.525L155.354 376.747L155.426 376.435L149.833 375.145Z" fill="black"/>
<path d="M141.466 366.313C143.065 361.512 139.73 358.105 135.821 356.803C131.893 355.496 127.201 356.231 125.602 361.032C124.01 365.814 127.294 369.31 131.222 370.618C135.15 371.926 139.874 371.095 141.466 366.313ZM131.323 370.314C128.477 369.367 126.737 366.933 128.379 361.999C130.028 357.046 132.88 356.14 135.726 357.088C138.573 358.036 140.313 360.47 138.664 365.423C137.022 370.356 134.17 371.262 131.323 370.314Z" fill="black"/>
<path d="M126.213 353.769L125.884 353.623L116.171 364.033L116.858 349.605L114.135 348.393L113.4 363.324L116.159 364.552L126.213 353.769Z" fill="black"/>
<path d="M109.482 353.89C111.959 349.478 109.328 345.501 105.736 343.485C102.125 341.458 97.3784 341.294 94.9017 345.706C92.4348 350.101 94.9987 354.155 98.6089 356.181C102.219 358.208 107.015 358.285 109.482 353.89ZM98.7655 355.902C96.1495 354.434 94.9006 351.715 97.4458 347.18C100.001 342.628 102.973 342.278 105.589 343.746C108.205 345.215 109.454 347.934 106.899 352.486C104.353 357.02 101.382 357.371 98.7655 355.902Z" fill="black"/>
<path d="M80.1563 344.094L88.6428 349.895L96.5098 338.387L94.1653 336.785L86.4789 348.028L80.3369 343.83L80.1563 344.094Z" fill="black"/>
<path d="M71.2679 323.154C70.5874 322.535 69.5703 322.583 68.9646 323.249C68.3455 323.929 68.3936 324.946 69.0741 325.566C69.7399 326.171 70.757 326.123 71.3761 325.443C71.9817 324.777 71.9336 323.76 71.2679 323.154Z" fill="black"/>
<path d="M54.5536 311.56C58.4998 308.393 57.5461 303.721 54.9673 300.508C52.376 297.28 48.0345 295.353 44.0883 298.52C40.1576 301.675 41.0208 306.393 43.6121 309.622C46.2034 312.85 50.623 314.714 54.5536 311.56ZM43.8617 309.421C41.9839 307.082 41.8418 304.093 45.8973 300.838C49.9683 297.571 52.8556 298.356 54.7334 300.696C56.6111 303.036 56.7532 306.025 52.6822 309.292C48.6268 312.547 45.7395 311.761 43.8617 309.421Z" fill="black"/>
<path d="M44.5616 286.156C43.7379 284.902 42.0785 282.522 38.7883 281.812L38.7362 282.134C41.888 282.815 43.4423 285.144 44.244 286.364C45.8804 288.855 44.8574 291.705 40.9963 294.242C37.5698 296.493 34.5335 296.789 32.6006 293.847C31.5462 292.243 30.5125 289.213 32.3153 287.549L32.0952 287.287C30.9285 288.389 30.3286 291.009 32.3933 294.151C34.9743 298.079 39.2397 298.962 42.733 296.666C46.2264 294.371 47.1425 290.083 44.5616 286.156Z" fill="black"/>
<path d="M25.6262 281.651L37.6147 275.187L36.2706 272.685L24.2726 279.131L21.556 274.075L21.2741 274.226L28.061 286.859L28.3428 286.707L25.6262 281.651Z" fill="black"/>
<path d="M33.0637 266.486L28.6359 256.438L28.3248 256.575L31.6073 264.024L25.4213 266.75L22.8566 260.93L22.5638 261.059L25.1285 266.879L19.4549 269.379L16.1724 261.93L15.8796 262.059L20.3073 272.107L33.0637 266.486Z" fill="black"/>
<path d="M21.4726 257.479C26.2675 255.863 26.9789 251.148 25.6629 247.244C24.3404 243.321 20.9267 240.019 16.1318 241.635C11.3558 243.245 10.5432 247.972 11.8657 251.895C13.1881 255.818 16.6966 259.089 21.4726 257.479ZM12.1689 251.793C11.2106 248.95 12.1054 246.095 17.033 244.434C21.9795 242.766 24.4203 244.497 25.3786 247.34C26.3369 250.183 25.4421 253.038 20.4956 254.706C15.568 256.367 13.1272 254.636 12.1689 251.793Z" fill="black"/>
<path d="M21.5121 234.571L8.24039 237.632L6.55519 230.323L19.8269 227.263L19.1888 224.496L5.60525 227.628L8.5667 240.471L22.1503 237.339L21.5121 234.571Z" fill="black"/>
<path d="M18.8636 222.893L18.8124 222.536L12.8919 221.406L12.0823 215.763L17.4092 212.756L16.9859 209.807L3.95421 217.132L4.38315 220.121L18.8636 222.893ZM4.79028 219.861L11.7628 215.931L12.5383 221.335L4.79028 219.861Z" fill="black"/>
<path d="M2.91166 203.873L16.5077 203.065L16.3434 200.23L2.74622 201.018L2.41419 195.287L2.09473 195.306L2.92422 209.622L3.24368 209.603L2.91166 203.873Z" fill="black"/>
<path d="M13.4306 175.366C13.5121 174.449 12.8587 173.668 11.9622 173.589C11.0458 173.507 10.2649 174.161 10.1834 175.077C10.1036 175.973 10.757 176.754 11.6734 176.836C12.5699 176.916 13.3508 176.262 13.4306 175.366Z" fill="black"/>
<path d="M8.35542 142.647L6.00745 152.656L19.579 155.839L20.2276 153.075L6.96765 149.964L8.66696 142.72L8.35542 142.647Z" fill="black"/>
<path d="M22.1267 144.858L22.2353 144.515L17.3914 140.928L19.11 135.493L25.2141 135.095L26.1126 132.253L11.1932 133.199L10.2826 136.079L22.1267 144.858ZM10.7624 136.021L18.7497 135.505L17.1035 140.711L10.7624 136.021Z" fill="black"/>
<path d="M29.8045 123.897C30.3785 122.511 31.4143 119.801 30.1523 116.681L29.8572 116.818C31.0651 119.808 30.0121 122.403 29.4534 123.751C28.3131 126.505 25.3808 127.26 21.1125 125.492C17.3245 123.923 15.3734 121.578 16.7203 118.326C17.4551 116.552 19.3804 113.994 21.7693 114.551L21.8624 114.221C20.2955 113.875 17.7915 114.852 16.3527 118.325C14.5542 122.668 16.2211 126.692 20.083 128.291C23.9449 129.891 28.006 128.239 29.8045 123.897Z" fill="black"/>
<path d="M22.6522 106.096L34.7534 112.346L36.0604 109.825L23.9683 103.557L26.6099 98.4607L26.3258 98.3134L19.7265 111.045L20.0106 111.192L22.6522 106.096Z" fill="black"/>
<path d="M27.7031 95.9176L39.4916 103.358L41.0074 100.956L36.9313 98.3834L38.7246 95.542C40.4752 92.7682 41.6382 89.5764 38.1541 87.3774C35.2112 85.5201 32.9253 87.081 31.3455 89.5842C29.6803 92.2226 31.1788 94.2326 33.1427 95.9924L29.2188 93.5159L27.7031 95.9176ZM32.117 94.4699C30.7477 92.9672 30.8316 91.2228 31.3493 90.1778C32.6861 87.4976 34.4583 88.4742 36.6063 89.8299C40.175 92.0822 39.2501 94.1472 38.2254 95.7709L36.6776 98.2233C36.6776 98.2233 34.2733 96.8242 32.117 94.4699Z" fill="black"/>
<path d="M41.7121 86.8526C45.7154 89.9473 50.0333 87.926 52.5531 84.6664C55.0852 81.391 55.9414 76.719 51.9381 73.6243C47.9506 70.5418 43.5658 72.4861 41.0338 75.7615C38.5017 79.0369 37.7246 83.7701 41.7121 86.8526ZM41.2869 75.9572C43.1217 73.5837 45.9943 72.7455 50.1083 75.9259C54.2382 79.1184 54.1506 82.1095 52.3158 84.483C50.481 86.8565 47.6084 87.6946 43.4786 84.5021C39.3645 81.3217 39.4521 78.3307 41.2869 75.9572Z" fill="black"/>
<path d="M56.6436 75.5191C60.0067 75.3808 62.0339 73.3335 63.0593 72.2387C66.2859 68.7939 66.1143 64.4131 63.0781 61.5693C60.0128 58.6981 55.6593 58.8405 52.4327 62.2854C49.8623 65.0296 50.0067 67.7133 50.9821 68.9832L51.2438 68.7624C49.751 66.8161 51.2863 64.0067 52.6808 62.5178C54.9231 60.1239 57.7184 60.7966 60.6916 63.4443L57.1778 67.1958L57.4114 67.4145L60.9251 63.6631C64.1949 66.7257 64.8328 69.7894 62.7819 71.979C61.8121 73.0436 59.8688 75.0599 56.6471 75.1936L56.6436 75.5191Z" fill="black"/>
<path d="M59.6402 55.163L68.9455 65.5424L71.0602 63.6467L66.334 58.375L72.0524 53.2484L76.7785 58.52L78.8932 56.6242L69.5878 46.2448L67.4732 48.1405L71.8388 53.0101L66.1204 58.1368L61.7548 53.2672L59.6402 55.163Z" fill="black"/>
<path d="M76.4558 41.2562L84.6437 52.1402L86.9157 50.4362L78.7438 39.5402L83.3358 36.0962L83.1438 35.8402L71.6718 44.4441L71.8637 44.7002L76.4558 41.2562Z" fill="black"/>
<path d="M92.3607 46.4373L101.625 40.5431L101.442 40.2562L94.5743 44.6259L90.9454 38.9225L96.3113 35.5083L96.1396 35.2384L90.7736 38.6525L87.4454 33.4216L94.3131 29.0519L94.1413 28.7819L84.8775 34.6762L92.3607 46.4373Z" fill="black"/>
<path d="M96.2911 27.446L102.843 39.7502L105.35 38.4154L103.084 34.161L106.05 32.5817C108.945 31.04 111.537 28.844 109.601 25.2075C107.965 22.1358 105.206 22.3588 102.593 23.7501C99.8396 25.2165 100.145 27.705 100.979 30.2067L98.7979 26.1112L96.2911 27.446ZM100.842 28.376C100.398 26.3922 101.335 24.9187 102.303 24.2675C104.792 22.602 105.847 24.3286 107.041 26.5705C109.025 30.2953 107.198 31.6306 105.503 32.5331L102.943 33.8962C102.943 33.8962 101.549 31.4894 100.842 28.376Z" fill="black"/>
<path d="M113.25 26.3446C115.186 31.0194 119.937 31.4111 123.744 29.8345C127.569 28.2503 130.633 24.6214 128.697 19.9465C126.768 15.2901 121.997 14.7985 118.172 16.3827C114.347 17.9669 111.321 21.6882 113.25 26.3446ZM118.295 16.6783C121.066 15.5303 123.976 16.2303 125.965 21.0346C127.963 25.8573 126.401 28.4094 123.629 29.5573C120.857 30.7053 117.948 30.0053 115.951 25.1826C113.961 20.3784 115.523 17.8263 118.295 16.6783Z" fill="black"/>
<path d="M132.574 25.9193L132.918 25.8134L133.391 11.5839L142.36 22.9058L145.208 22.0288L135.945 10.2953L133.059 11.184L132.574 25.9193Z" fill="black"/>
<path d="M145.076 14.7653C146.1 19.7206 150.693 20.9976 154.728 20.1639C158.782 19.3262 162.474 16.3374 161.45 11.3821C160.43 6.44635 155.836 5.06741 151.782 5.90512C147.728 6.74283 144.056 9.82956 145.076 14.7653ZM151.847 6.2185C154.785 5.61146 157.511 6.84538 158.563 11.9378C159.619 17.0498 157.605 19.2631 154.667 19.8701C151.729 20.4772 149.003 19.2433 147.947 14.1312C146.895 9.0388 148.909 6.82553 151.847 6.2185Z" fill="black"/>
<path d="M174.224 2.78768L164.013 3.97372L165.621 17.8206L168.442 17.493L166.871 3.96392L174.261 3.10555L174.224 2.78768Z" fill="black"/>
<path d="M194.53 12.7232C195.45 12.7445 196.186 12.0414 196.207 11.1416C196.229 10.2219 195.525 9.4854 194.606 9.46409C193.706 9.44325 192.969 10.1464 192.948 11.0661C192.927 11.9659 193.63 12.7024 194.53 12.7232Z" fill="black"/>
<path d="M227.859 19.818C228.961 20.0152 229.688 21.0596 229.491 22.1621C229.298 23.2449 228.253 23.9724 227.151 23.7752C226.068 23.5815 225.321 22.5336 225.514 21.4508L225.199 21.3944C224.974 22.6544 225.811 23.881 227.091 24.1099C228.37 24.3388 229.581 23.4785 229.806 22.2185C230.028 20.9782 229.257 19.7228 228.036 19.5045L227.564 19.4199L224.761 5.10273L221.788 4.57098L217.024 13.1461C215.082 16.6184 214.649 17.1098 213.822 16.9619L213.762 17.2966L227.859 19.818ZM217.318 13.3205L221.911 5.01963L224.631 18.8952L214.728 17.1239C215.347 16.7268 216.028 15.6497 217.318 13.3205Z" fill="black"/>
<path d="M230.557 20.3569L233.296 21.1101C237.095 22.1551 240.366 20.4414 242.187 17.0634L240.527 23.0993L243.265 23.8525L246.962 10.4117L244.224 9.65848L242.85 14.653C240.407 22.029 235.063 21.2438 233.386 20.7823L236.993 7.66934L234.254 6.91612L230.557 20.3569Z" fill="black"/>
<path d="M246.172 24.7976L256.48 28.5777L256.597 28.2584L248.955 25.4561L251.282 19.1093L257.253 21.2989L257.364 20.9984L251.392 18.8089L253.527 12.9879L261.169 15.7902L261.279 15.4898L250.971 11.7097L246.172 24.7976Z" fill="black"/>
<path d="M266.875 18.2524L261.262 30.662L263.848 31.8363L269.479 19.4349L274.706 21.8082L274.838 21.5168L261.781 15.5878L261.649 15.8792L266.875 18.2524Z" fill="black"/>
<path d="M273.866 28.7453C271.34 33.1301 273.926 37.1352 277.497 39.1914C281.084 41.2576 285.829 41.4747 288.354 37.0899C290.87 32.7224 288.351 28.6406 284.763 26.5744C281.176 24.5082 276.381 24.3778 273.866 28.7453ZM284.603 26.8517C287.203 28.3489 288.422 31.0818 285.827 35.5879C283.221 40.1113 280.246 40.4287 277.646 38.9315C275.047 37.4342 273.828 34.7013 276.433 30.1779C279.028 25.6718 282.004 25.3544 284.603 26.8517Z" fill="black"/>
<path d="M286.631 44.228L286.925 44.4365L298.505 36.1538L294.978 50.1605L297.407 51.887L301.081 37.3963L298.62 35.6467L286.631 44.228Z" fill="black"/>
<path d="M303.319 47.5796C300.01 51.4079 301.792 55.8298 304.91 58.5238C308.042 61.2309 312.66 62.3409 315.969 58.5125C319.264 54.6992 317.563 50.2148 314.43 47.5077C311.298 44.8007 306.614 43.7663 303.319 47.5796ZM314.221 47.7499C316.491 49.7115 317.171 52.6255 313.771 56.5598C310.357 60.5092 307.376 60.2584 305.106 58.2968C302.836 56.3351 302.156 53.4211 305.569 49.4717C308.969 45.5374 311.951 45.7882 314.221 47.7499Z" fill="black"/>
<path d="M329.658 62.4921L322.469 55.1442L312.505 64.8933L314.491 66.9232L324.226 57.398L329.43 62.7159L329.658 62.4921Z" fill="black"/>
<path d="M331.746 81.3413C332.312 82.0671 333.322 82.1927 334.032 81.6397C334.758 81.0744 334.884 80.0639 334.318 79.3381C333.765 78.6281 332.755 78.5025 332.029 79.0678C331.319 79.6208 331.193 80.6313 331.746 81.3413Z" fill="black"/>
<path d="M343.276 90.9092C338.92 93.4828 339.199 98.2422 341.295 101.79C343.4 105.354 347.424 107.879 351.78 105.305C356.12 102.742 355.936 97.9485 353.831 94.384C351.725 90.8195 347.616 88.3458 343.276 90.9092ZM353.555 94.5467C355.081 97.1297 354.797 100.108 350.319 102.753C345.825 105.408 343.079 104.22 341.553 101.637C340.027 99.054 340.312 96.0752 344.806 93.4202C349.283 90.7753 352.029 91.9638 353.555 94.5467Z" fill="black"/>
<path d="M349.525 117.344C350.16 118.702 351.461 121.295 354.616 122.47L354.713 122.159C351.692 121.033 350.488 118.505 349.869 117.183C348.607 114.483 350.028 111.809 354.213 109.852C357.927 108.116 360.975 108.258 362.466 111.447C363.279 113.186 363.867 116.333 361.845 117.721L362.025 118.012C363.338 117.089 364.307 114.582 362.714 111.176C360.723 106.919 356.629 105.433 352.842 107.204C349.056 108.974 347.534 113.086 349.525 117.344Z" fill="black"/>
<path d="M367.884 125.098L355.086 129.757L356.054 132.427L368.859 127.786L370.815 133.183L371.115 133.074L366.229 119.592L365.928 119.701L367.884 125.098Z" fill="black"/>
<path d="M358.162 138.441L361.114 149.017L361.442 148.925L359.253 141.085L365.764 139.268L367.474 145.393L367.782 145.307L366.072 139.182L372.044 137.515L374.233 145.355L374.541 145.269L371.589 134.693L358.162 138.441Z" fill="black"/>
<path d="M368.468 149.427C363.49 150.337 362.108 154.9 362.849 158.953C363.594 163.025 366.497 166.784 371.474 165.874C376.432 164.968 377.916 160.407 377.172 156.334C376.427 152.262 373.425 148.52 368.468 149.427ZM376.857 156.392C377.396 159.343 376.1 162.04 370.985 162.975C365.85 163.914 363.684 161.85 363.144 158.899C362.605 155.947 363.901 153.25 369.036 152.312C374.151 151.376 376.317 153.44 376.857 156.392Z" fill="black"/>
<path d="M365.118 171.834L378.689 170.68L379.325 178.153L365.754 179.308L365.995 182.137L379.884 180.956L378.767 167.823L364.878 169.005L365.118 171.834Z" fill="black"/>
</g>
</svg>
