<svg width="29" height="40" viewBox="0 0 29 40" fill="none" xmlns="http://www.w3.org/2000/svg">
<path d="M10.888 13.6481C10.888 14.1697 10.4736 14.5924 9.96232 14.5924H5.09646C4.58519 14.5924 4.1708 14.1697 4.1708 13.6481C4.1708 13.1266 4.58519 12.7039 5.09646 12.7039H9.96222C10.4735 12.7039 10.888 13.1266 10.888 13.6481ZM10.4229 39.0558C10.4229 39.5773 10.0085 40 9.49723 40H5.56134C2.49485 40 0 37.4551 0 34.327V12.2093C0 10.1732 1.07428 8.30796 2.78273 7.29922V4.65499C2.23114 4.16872 1.88155 3.45028 1.88155 2.65C1.88155 1.18877 3.04685 0 4.47925 0H10.5794C12.0117 0 13.177 1.18877 13.177 2.64989C13.177 3.45017 12.8275 4.16872 12.2759 4.65499V7.29912C13.9844 8.30786 15.0586 10.1732 15.0586 12.2092V13.5474C15.0586 14.0689 14.6442 14.4916 14.1329 14.4916C13.6216 14.4916 13.2073 14.0689 13.2073 13.5474V12.2092C13.2073 10.7103 12.3321 9.34912 10.9777 8.74157C10.6415 8.59081 10.4246 8.25173 10.4246 7.87729V5.29979H4.63404V7.87729C4.63404 8.25173 4.41703 8.59091 4.08101 8.74167C2.72657 9.34912 1.85131 10.7103 1.85131 12.2092V34.3269C1.85131 36.4138 3.51564 38.1115 5.56134 38.1115H9.49723C10.0085 38.1116 10.4229 38.5343 10.4229 39.0558ZM3.73286 2.64989C3.73286 3.06976 4.06775 3.41135 4.47935 3.41135H10.5795C10.991 3.41135 11.3258 3.06976 11.3258 2.65C11.3258 2.23003 10.991 1.88844 10.5795 1.88844H4.47925C4.07464 1.88844 3.73286 2.23706 3.73286 2.64989ZM27.1258 28.1799C27.4434 29.1088 27.6117 30.096 27.6117 31.1046C27.6117 34.6564 25.5605 37.7286 22.6029 39.1534C22.5651 39.1746 22.5263 39.1929 22.4868 39.2082C21.39 39.7165 20.1723 39.9999 18.8912 39.9999C14.0829 39.9999 10.1711 36.0095 10.1711 31.1046C10.1711 28.3667 11.4113 25.7861 13.5116 24.1042V20.8819C13.5116 18.0974 15.555 15.7907 18.1925 15.4404C18.3663 14.9136 18.5746 14.4033 18.8161 13.9116C18.0286 11.5419 18.7572 8.58357 20.6734 6.55245C22.7766 4.32263 25.7429 3.44556 28.0544 4.36994C28.2829 4.46132 28.4665 4.64156 28.5647 4.8709C29.5586 7.19127 28.8132 10.2483 26.7098 12.4779C24.7516 14.5535 22.3727 15.5071 20.3128 15.0972C20.2477 15.2431 20.1861 15.391 20.1278 15.5406C22.5004 16.1117 24.2713 18.2898 24.2713 20.8819V24.1042C25.5579 25.1343 26.5217 26.5018 27.0753 28.036C27.0957 28.082 27.1128 28.13 27.1258 28.1799ZM20.3772 11.5171C20.8383 10.9689 21.3515 10.4603 21.9125 9.99717C22.0839 9.85574 22.2898 9.78703 22.4942 9.78703C22.764 9.78703 23.0316 9.90673 23.2144 10.1373C23.5359 10.5427 23.4744 11.1373 23.077 11.4653C22.4212 12.0064 21.8436 12.6214 21.3524 13.2968C22.6419 13.2628 24.1156 12.5042 25.3756 11.1686C26.8218 9.63574 27.4558 7.57451 27.0028 6.00533C25.4476 5.60362 23.4531 6.32899 22.0073 7.86187C20.9662 8.96556 20.4658 10.3046 20.3772 11.5171ZM20.77 37.8451C20.2635 36.8426 19.9998 35.7337 19.9998 34.582C19.9998 31.4144 22.0464 28.668 24.9228 27.7542C24.4194 26.8119 23.7039 25.9857 22.8161 25.3539C22.5679 25.1773 22.42 24.8882 22.42 24.5795V20.8819C22.42 18.9038 20.8472 17.2931 18.9101 17.2826C18.8979 17.2831 18.8857 17.2831 18.8732 17.2826C16.936 17.2927 15.3629 18.9034 15.3629 20.8819V24.5795C15.3629 24.8881 15.215 25.1773 14.9668 25.3539C13.1231 26.6659 12.0224 28.8156 12.0224 31.1045C12.0224 34.9681 15.1037 38.1114 18.8912 38.1114C19.5425 38.1115 20.1725 38.0186 20.77 37.8451ZM25.7604 31.1045C25.7604 30.567 25.6996 30.0369 25.5828 29.5238C23.409 30.1599 21.851 32.2104 21.851 34.582C21.851 35.4683 22.0632 36.32 22.4698 37.0835C24.442 35.8508 25.7604 33.6318 25.7604 31.1045ZM9.96232 19.6048H5.09646C4.58519 19.6048 4.1708 20.0275 4.1708 20.549C4.1708 21.0705 4.58519 21.4932 5.09646 21.4932H9.96222C10.4735 21.4932 10.8879 21.0705 10.8879 20.549C10.8879 20.0275 10.4735 19.6048 9.96232 19.6048Z" fill="#E2E2E2"/>
</svg>
