<svg width="32" height="33" viewBox="0 0 32 33" fill="none" xmlns="http://www.w3.org/2000/svg">
<path fill-rule="evenodd" clip-rule="evenodd" d="M16.1258 0.75C16.704 0.75 17.1727 1.21874 17.1727 1.79695V2.69036C17.1727 5.47152 18.0976 8.1415 19.8392 10.2962C20.0331 10.5359 20.1113 10.849 20.0532 11.1517C19.4486 14.3001 17.7465 17.1205 15.0435 18.9661C15.0046 18.9927 14.964 19.0166 14.9219 19.0377L14.7109 19.1433C12.8433 20.1375 10.7423 20.5013 8.55349 20.2604L7.22941 20.1499C7.18483 20.1462 7.14054 20.1396 7.0968 20.1302C5.8839 19.87 4.697 20.2107 3.84151 21.0534C3.11452 21.8834 2.67643 22.9711 2.67643 24.0203V31.9492C2.67643 32.5275 2.20769 32.9962 1.62947 32.9962C1.05126 32.9962 0.58252 32.5275 0.58252 31.9492V24.0203C0.58252 22.3992 1.25125 20.8172 2.29609 19.64C2.3097 19.6247 2.32376 19.6098 2.33825 19.5953C3.69481 18.2367 5.59054 17.6887 7.46729 18.0686L8.74167 18.1749C8.75126 18.1757 8.76083 18.1767 8.77039 18.1777C10.5858 18.3797 12.2664 18.0751 13.7368 17.2897C13.7417 17.2871 13.7465 17.2846 13.7514 17.2821C13.7547 17.2804 13.758 17.2787 13.7613 17.2771L13.9195 17.1979C15.9644 15.7799 17.3254 13.6574 17.8996 11.213C16.0517 8.7509 15.0788 5.77105 15.0788 2.69036V1.79695C15.0788 1.21874 15.5475 0.75 16.1258 0.75Z" fill="#D9D9D9"/>
<path fill-rule="evenodd" clip-rule="evenodd" d="M20.6591 0.75C21.2373 0.75 21.7061 1.21874 21.7061 1.79695V2.24365C21.7061 4.65633 22.2249 6.34977 22.7169 7.41698C22.9611 7.94674 23.201 8.32685 23.3726 8.56726H23.8694C28.22 8.56726 31.669 12.0599 31.669 16.4264C31.669 18.7284 31.0692 21.0163 29.9993 23.055C29.995 23.0632 29.9906 23.0714 29.986 23.0795C27.3476 27.7981 22.0769 30.7991 15.7957 30.0876C12.9436 29.8448 10.1951 28.7638 8.02993 26.9435C8.0214 26.9363 8.01298 26.929 8.00468 26.9216C7.81587 26.7523 7.6434 26.76 7.52783 26.81C7.4033 26.8638 7.31522 26.9756 7.31522 27.1472V31.9492C7.31522 32.5275 6.84648 32.9962 6.26827 32.9962C5.69005 32.9962 5.22131 32.5275 5.22131 31.9492V27.1472C5.22131 24.9792 7.74778 23.898 9.38846 25.3501C11.2029 26.8712 13.536 27.7964 15.9868 28.0024C15.9972 28.0033 16.0075 28.0043 16.0179 28.0055C21.4584 28.6268 25.9193 26.051 28.1517 22.0697C29.0703 20.3147 29.5751 18.3635 29.5751 16.4264C29.5751 13.199 27.0463 10.6612 23.8694 10.6612H22.8731C22.5938 10.6612 22.3262 10.5496 22.1296 10.3513L22.8731 9.61421C22.1296 10.3513 22.1291 10.3508 22.1287 10.3504L22.1278 10.3495L22.1258 10.3475L22.1213 10.3429L22.1099 10.331C22.1042 10.3251 22.0977 10.3182 22.0903 10.3102C22.0864 10.3061 22.0823 10.3017 22.078 10.297C22.0529 10.2697 22.0201 10.233 21.9808 10.1869C21.9023 10.0947 21.7977 9.96441 21.6762 9.79478C21.433 9.45541 21.1219 8.9586 20.8154 8.29368C20.2004 6.95988 19.6122 4.96804 19.6122 2.24365V1.79695C19.6122 1.21874 20.0809 0.75 20.6591 0.75Z" fill="#D9D9D9"/>
</svg>
