<svg width="25" height="39" viewBox="0 0 25 39" fill="none" xmlns="http://www.w3.org/2000/svg">
<path d="M22.6133 4.01051H20.9673V2.08453C20.9673 1.63373 20.738 1.22345 20.3551 0.987714C19.9768 0.754262 19.4952 0.733601 19.098 0.934181C17.8673 1.55578 15.3743 1.95748 12.7468 1.95748C10.1191 1.95748 7.62612 1.55578 6.39487 0.933913C5.99854 0.734003 5.51742 0.754128 5.13866 0.987043C4.75508 1.22345 4.52605 1.6336 4.52605 2.08453V4.01051H2.88009C1.71873 4.01051 0.773926 4.95531 0.773926 6.11667V7.58043C0.773926 8.74179 1.71873 9.68659 2.88009 9.68659H4.52605V10.6478C4.52605 11.4106 4.97189 12.1134 5.66191 12.4382C7.98999 13.534 11.9722 13.5895 12.7469 13.5895C14.9843 13.5895 18.0197 13.2872 19.8291 12.4388C20.5206 12.1145 20.9675 11.4113 20.9675 10.6471V9.68659H22.6134C23.7748 9.68659 24.7196 8.74179 24.7196 7.58043V6.11667C24.7195 4.95531 23.7747 4.01051 22.6133 4.01051ZM22.7069 7.58043C22.7069 7.63209 22.665 7.67408 22.6133 7.67408H19.9611C19.4052 7.67408 18.9548 8.12448 18.9548 8.68034V10.6258C17.4387 11.3276 14.6666 11.577 12.7468 11.577C10.8227 11.577 8.04781 11.3279 6.53856 10.6264V8.68047C6.53856 8.12462 6.08816 7.67422 5.53231 7.67422H2.88009C2.82843 7.67422 2.78644 7.63222 2.78644 7.58057V6.11667C2.78644 6.06501 2.82843 6.02302 2.88009 6.02302H5.53231C6.08816 6.02302 6.53856 5.57262 6.53856 5.01676V3.15546C8.11664 3.67254 10.3371 3.96985 12.7468 3.96985C15.1564 3.96985 17.3771 3.67254 18.9548 3.15559V5.01676C18.9548 5.57262 19.4052 6.02302 19.9611 6.02302H22.6133C22.665 6.02302 22.7069 6.06501 22.7069 6.11667V7.58043Z" fill="#D9D9D9"/>
<path d="M22.3577 16.4353H20.9675V14.5093C20.9675 14.0651 20.7326 13.6447 20.3553 13.4125C19.9769 13.179 19.4954 13.1584 19.0981 13.3589C17.8674 13.9805 15.3744 14.3822 12.7469 14.3822C10.1192 14.3822 7.62627 13.9805 6.39502 13.3587C5.99775 13.1584 5.51622 13.1789 5.13988 13.4114C4.76139 13.6439 4.5262 14.0647 4.5262 14.5094V16.4354H3.13569C1.83332 16.4354 0.773804 17.4948 0.773804 18.7973V19.75C0.773804 21.0522 1.83319 22.1117 3.13569 22.1117H4.52593V23.0729C4.52593 23.8358 4.97177 24.5386 5.66179 24.8634C7.98986 25.9591 11.9721 26.0147 12.7468 26.0147C14.9844 26.0147 18.02 25.7124 19.8289 24.8639C20.5204 24.5396 20.9673 23.8365 20.9673 23.0723V22.1117H22.3576C23.66 22.1117 24.7195 21.0524 24.7195 19.75V18.7973C24.7195 17.4946 23.6601 16.4353 22.3577 16.4353ZM22.707 19.7497C22.707 19.9423 22.5503 20.099 22.3576 20.099H19.9611C19.4052 20.099 18.9548 20.5494 18.9548 21.1052V23.0507C17.4391 23.7525 14.6667 24.0019 12.7468 24.0019C10.8227 24.0019 8.04783 23.7527 6.53858 23.0513V21.1052C6.53858 20.5494 6.08818 20.099 5.53232 20.099H3.13569C2.94302 20.099 2.78632 19.9423 2.78632 19.7497V18.797C2.78632 18.6043 2.94302 18.4476 3.13569 18.4476H5.53219C6.08804 18.4476 6.53844 17.9972 6.53844 17.4414V15.5801C8.11652 16.0972 10.337 16.3945 12.7466 16.3945C15.1563 16.3945 17.377 16.0972 18.9547 15.5802V17.4414C18.9547 17.9972 19.4051 18.4476 19.961 18.4476H22.3575C22.5501 18.4476 22.7068 18.6043 22.7068 18.797V19.7497H22.707Z" fill="#D9D9D9"/>
<path d="M8.46902 4.41553C7.91317 4.41553 7.46277 4.86593 7.46277 5.42178V9.2901C7.46277 9.84595 7.91317 10.2964 8.46902 10.2964C9.02488 10.2964 9.47528 9.84595 9.47528 9.2901V5.42178C9.47528 4.86593 9.02488 4.41553 8.46902 4.41553Z" fill="#D9D9D9"/>
<path d="M8.46902 16.9364C7.91317 16.9364 7.46277 17.3868 7.46277 17.9427V21.6768C7.46277 22.2327 7.91317 22.6831 8.46902 22.6831C9.02488 22.6831 9.47528 22.2327 9.47528 21.6768V17.9427C9.47528 17.3868 9.02488 16.9364 8.46902 16.9364Z" fill="#D9D9D9"/>
<path d="M22.3577 28.9082H20.9675V26.9821C20.9675 26.5378 20.7326 26.1175 20.3543 25.8846C19.976 25.6519 19.4949 25.6314 19.0981 25.8316C17.8674 26.4532 15.3744 26.8549 12.7469 26.8549C10.1192 26.8549 7.62627 26.4532 6.39502 25.8313C5.99775 25.631 5.51622 25.6515 5.13988 25.884C4.76139 26.1166 4.5262 26.5373 4.5262 26.9821V28.9082H3.13569C1.83332 28.9082 0.773804 29.9676 0.773804 31.2699V32.2227C0.773804 33.525 1.83319 34.5845 3.13569 34.5845H4.52593V35.5456C4.52593 36.3082 4.97163 37.011 5.66193 37.3362C7.99027 38.4319 11.9721 38.4875 12.7468 38.4875C14.9843 38.4875 18.0197 38.1852 19.8289 37.3366C20.5204 37.0123 20.9673 36.3091 20.9673 35.5449V34.5845H22.3576C23.66 34.5845 24.7195 33.5252 24.7195 32.2227V31.2699C24.7195 29.9677 23.6601 28.9082 22.3577 28.9082ZM22.707 32.2225C22.707 32.4152 22.5503 32.5719 22.3576 32.5719H19.9611C19.4052 32.5719 18.9548 33.0223 18.9548 33.5781V35.5234C17.4389 36.2254 14.6666 36.4748 12.7468 36.4748C10.8227 36.4748 8.04783 36.2257 6.53858 35.5242V33.5781C6.53858 33.0223 6.08818 32.5719 5.53232 32.5719H3.13569C2.94302 32.5719 2.78632 32.4152 2.78632 32.2225V31.2698C2.78632 31.0771 2.94302 30.9206 3.13569 30.9206H5.53219C6.08804 30.9206 6.53844 30.4702 6.53844 29.9143V28.053C8.11652 28.5701 10.337 28.8673 12.7466 28.8673C15.1563 28.8673 17.377 28.5699 18.9547 28.053V29.9143C18.9547 30.4702 19.4051 30.9206 19.961 30.9206H22.3575C22.5501 30.9206 22.7068 31.0771 22.7068 31.2698V32.2225H22.707Z" fill="#D9D9D9"/>
<path d="M8.46902 29.4091C7.91317 29.4091 7.46277 29.8595 7.46277 30.4153V34.1496C7.46277 34.7055 7.91317 35.1559 8.46902 35.1559C9.02488 35.1559 9.47528 34.7055 9.47528 34.1496V30.4153C9.47528 29.8595 9.02488 29.4091 8.46902 29.4091Z" fill="#D9D9D9"/>
</svg>
